<svg xmlns="http://www.w3.org/2000/svg" xmlns:xlink="http://www.w3.org/1999/xlink" width="198px" height="42px" viewBox="0 0 198 42">
  <g class="dakta" transform="translate(0.189900, 0.472000)">
    <path d="M7.878,23.924 L11.254,23.924 C17.131,23.924 18.798,19.84 18.798,15.463 C18.798,13.713 18.423,11.503 17.297,9.753 C16.38,8.377 14.797,6.919 11.295,6.919 L7.878,6.919 L7.878,23.924 Z M-2.30926389e-14,-7.10542736e-15 L10.212,-7.10542736e-15 C13.671,-7.10542736e-15 19.84,-7.10542736e-15 23.841,5.752 C25.967,8.669 26.675,11.962 26.675,15.338 C26.675,23.757 22.507,30.842 10.795,30.842 L-2.30926389e-14,30.842 L-2.30926389e-14,-7.10542736e-15 Z" id="Fill-394"></path>
    <path d="M34.6407,20.3869 C34.6407,22.3259 36.0857,25.6729 39.8877,25.6729 C42.1307,25.6729 43.4987,24.6079 44.2977,23.3149 C44.8297,22.4789 45.0957,21.5669 45.1717,20.6159 C45.2477,19.6649 45.0577,18.7139 44.6397,17.8399 C43.9547,16.3959 42.5107,14.9119 39.8497,14.9119 C36.2377,14.9119 34.6407,17.9539 34.6407,20.3499 L34.6407,20.3869 Z M51.4837,30.8429 L45.1717,30.8429 L45.1717,28.5609 C44.0317,30.6139 41.4087,31.5649 38.9367,31.5649 C32.2447,31.5649 28.3287,26.3189 28.3287,20.2739 C28.3287,13.3539 33.3107,9.0199 38.9367,9.0199 C42.3967,9.0199 44.3357,10.6929 45.1717,11.9859 L45.1717,9.7409 L51.4837,9.7409 L51.4837,30.8429 Z" id="Fill-396"></path>
    <polygon id="Fill-398" points="53.7539 2.7082 60.0659 2.7082 60.0659 17.3842 65.9959 9.7412 73.4859 9.7412 65.5399 19.0192 73.2579 30.8422 66.1099 30.8422 60.0659 20.6912 60.0659 30.8422 53.7539 30.8422"></polygon>
    <polygon id="Fill-400" points="78.3477 14.5324 75.2307 14.5324 75.2307 9.7414 78.3477 9.7414 78.3477 2.7084 84.6597 2.7084 84.6597 9.7414 87.7017 9.7414 87.7017 14.5324 84.6597 14.5324 84.6597 30.8424 78.3477 30.8424"></polygon>
    <path d="M94.6368,20.3869 C94.6368,22.3259 96.0808,25.6729 99.8828,25.6729 C102.1268,25.6729 103.4938,24.6079 104.2928,23.3149 C104.8258,22.4789 105.0918,21.5669 105.1678,20.6159 C105.2438,19.6649 105.0538,18.7139 104.6368,17.8399 C103.9508,16.3959 102.5058,14.9119 99.8448,14.9119 C96.2338,14.9119 94.6368,17.9539 94.6368,20.3499 L94.6368,20.3869 Z M111.4788,30.8429 L105.1678,30.8429 L105.1678,28.5609 C104.0268,30.6139 101.4038,31.5649 98.9328,31.5649 C92.2408,31.5649 88.3248,26.3189 88.3248,20.2739 C88.3248,13.3539 93.3058,9.0199 98.9328,9.0199 C102.3918,9.0199 104.3318,10.6929 105.1678,11.9859 L105.1678,9.7409 L111.4788,9.7409 L111.4788,30.8429 Z" id="Fill-402"></path>
  </g>
  <g class="deo" transform="translate(114.204100, 10.117000)">
    <path d="M7.877,23.924 L11.254,23.924 C17.131,23.924 18.797,19.84 18.797,15.463 C18.797,13.713 18.422,11.504 17.297,9.754 C16.379,8.378 14.797,6.919 11.295,6.919 L7.877,6.919 L7.877,23.924 Z M4.08562073e-14,-1.24344979e-14 L10.211,-1.24344979e-14 C13.67,-1.24344979e-14 19.84,-1.24344979e-14 23.84,5.752 C25.965,8.67 26.674,11.962 26.674,15.338 C26.674,23.758 22.506,30.842 10.795,30.842 L4.08562073e-14,30.842 L4.08562073e-14,-1.24344979e-14 Z" id="Fill-404"></path>
    <path d="M43.9922,17.6877 C43.8422,16.6997 42.5492,14.3427 39.2792,14.3427 C36.0102,14.3427 34.7172,16.6997 34.5642,17.6877 L43.9922,17.6877 Z M34.4882,22.4787 C34.7542,24.7207 36.8832,26.2037 39.3552,26.2037 C41.3692,26.2037 42.4332,25.3307 43.1952,24.2267 L49.6582,24.2267 C48.6312,26.5837 47.1482,28.4087 45.3612,29.6257 C43.6132,30.8807 41.5212,31.5277 39.3552,31.5277 C33.3102,31.5277 28.1782,26.6237 28.1782,20.3497 C28.1782,14.4557 32.8142,9.0197 39.2402,9.0197 C42.4722,9.0197 45.2482,10.2737 47.2242,12.3647 C49.8872,15.2167 50.6832,18.5997 50.1892,22.4787 L34.4882,22.4787 Z" id="Fill-406"></path>
    <path d="M58.4707,20.3107 C58.4707,23.3537 60.7907,25.5957 63.5277,25.5957 C66.2657,25.5957 68.5837,23.3537 68.5837,20.2737 C68.5837,17.1937 66.2657,14.9497 63.5277,14.9497 C60.7907,14.9497 58.4707,17.1937 58.4707,20.2737 L58.4707,20.3107 Z M52.1597,20.2347 C52.1597,15.1017 55.8477,9.0577 63.5277,9.0577 C71.2067,9.0577 74.8947,15.1017 74.8947,20.2737 C74.8947,25.4437 71.2067,31.4887 63.5277,31.4887 C55.8477,31.4887 52.1597,25.4437 52.1597,20.2737 L52.1597,20.2347 Z" id="Fill-408"></path>
  </g>
  <polygon class="dot" points="190.87 40.959 197.448 40.959 197.448 34.496 190.87 34.496"></polygon>
</svg>
