<svg class="logo daktadeo academy" width="100%" height="100%" viewBox="0 0 1122 186" version="1.1" xmlns="http://www.w3.org/2000/svg" xmlns:xlink="http://www.w3.org/1999/xlink" xml:space="preserve" xmlns:serif="http://www.serif.com/" style="fill-rule:evenodd;clip-rule:evenodd;stroke-linecap:round;stroke-linejoin:round;stroke-miterlimit:1.5;">
        <g id="Logo-DaktaDeo" transform="matrix(4.2541,0,0,4.2541,-0.807854,-2.00794)">
            <g class="dakta" transform="matrix(1,0,0,1,0.1899,0.472)">
                <path d="M7.878,23.924L11.254,23.924C17.131,23.924 18.798,19.84 18.798,15.463C18.798,13.713 18.423,11.503 17.297,9.753C16.38,8.377 14.797,6.919 11.295,6.919L7.878,6.919L7.878,23.924ZM0,0L10.212,0C13.671,0 19.84,0 23.841,5.752C25.967,8.669 26.675,11.962 26.675,15.338C26.675,23.757 22.507,30.842 10.795,30.842L0,30.842L0,0Z"/>
              <path d="M34.641,20.387C34.641,22.326 36.086,25.673 39.888,25.673C42.131,25.673 43.499,24.608 44.298,23.315C44.83,22.479 45.096,21.567 45.172,20.616C45.248,19.665 45.058,18.714 44.64,17.84C43.955,16.396 42.511,14.912 39.85,14.912C36.238,14.912 34.641,17.954 34.641,20.35L34.641,20.387ZM51.484,30.843L45.172,30.843L45.172,28.561C44.032,30.614 41.409,31.565 38.937,31.565C32.245,31.565 28.329,26.319 28.329,20.274C28.329,13.354 33.311,9.02 38.937,9.02C42.397,9.02 44.336,10.693 45.172,11.986L45.172,9.741L51.484,9.741L51.484,30.843Z"/>
              <path d="M53.754,2.708L60.066,2.708L60.066,17.384L65.996,9.741L73.486,9.741L65.54,19.019L73.258,30.842L66.11,30.842L60.066,20.691L60.066,30.842L53.754,30.842L53.754,2.708Z"/>
              <path d="M78.348,14.532L75.231,14.532L75.231,9.741L78.348,9.741L78.348,2.708L84.66,2.708L84.66,9.741L87.702,9.741L87.702,14.532L84.66,14.532L84.66,30.842L78.348,30.842L78.348,14.532Z"/>
              <path d="M94.637,20.387C94.637,22.326 96.081,25.673 99.883,25.673C102.127,25.673 103.494,24.608 104.293,23.315C104.826,22.479 105.092,21.567 105.168,20.616C105.244,19.665 105.054,18.714 104.637,17.84C103.951,16.396 102.506,14.912 99.845,14.912C96.234,14.912 94.637,17.954 94.637,20.35L94.637,20.387ZM111.479,30.843L105.168,30.843L105.168,28.561C104.027,30.614 101.404,31.565 98.933,31.565C92.241,31.565 88.325,26.319 88.325,20.274C88.325,13.354 93.306,9.02 98.933,9.02C102.392,9.02 104.332,10.693 105.168,11.986L105.168,9.741L111.479,9.741L111.479,30.843Z"/>
            </g>
          <g class="deo" transform="matrix(1,0,0,1,114.204,10.117)">
                <path d="M7.877,23.924L11.254,23.924C17.131,23.924 18.797,19.84 18.797,15.463C18.797,13.713 18.422,11.504 17.297,9.754C16.379,8.378 14.797,6.919 11.295,6.919L7.877,6.919L7.877,23.924ZM0,0L10.211,0C13.67,0 19.84,0 23.84,5.752C25.965,8.67 26.674,11.962 26.674,15.338C26.674,23.758 22.506,30.842 10.795,30.842L0,30.842L0,0Z"/>
            <path d="M43.992,17.688C43.842,16.7 42.549,14.343 39.279,14.343C36.01,14.343 34.717,16.7 34.564,17.688L43.992,17.688ZM34.488,22.479C34.754,24.721 36.883,26.204 39.355,26.204C41.369,26.204 42.433,25.331 43.195,24.227L49.658,24.227C48.631,26.584 47.148,28.409 45.361,29.626C43.613,30.881 41.521,31.528 39.355,31.528C33.31,31.528 28.178,26.624 28.178,20.35C28.178,14.456 32.814,9.02 39.24,9.02C42.472,9.02 45.248,10.274 47.224,12.365C49.887,15.217 50.683,18.6 50.189,22.479L34.488,22.479Z" />
            <path d="M58.471,20.311C58.471,23.354 60.791,25.596 63.528,25.596C66.266,25.596 68.584,23.354 68.584,20.274C68.584,17.194 66.266,14.95 63.528,14.95C60.791,14.95 58.471,17.194 58.471,20.274L58.471,20.311ZM52.16,20.235C52.16,15.102 55.848,9.058 63.528,9.058C71.207,9.058 74.895,15.102 74.895,20.274C74.895,25.444 71.207,31.489 63.528,31.489C55.848,31.489 52.16,25.444 52.16,20.274L52.16,20.235Z" />
            </g>
          <rect class="dot" x="190.87" y="34.496" width="6.578" height="6.463"/>
          <g class="suffix" transform="matrix(0.235067,0,0,0.235067,-0.0756622,-46.9729)">
                <path d="M860.907,304.25C861.414,306.029 859.813,311.23 859.591,312.712C858.409,320.591 857.702,328.58 856.909,336.507C856.699,338.61 854.228,356.819 854.228,352.929M860.726,301.946C860.1,302.148 860.302,299.388 860.596,299.977C863.036,304.856 864.117,310.599 865.958,315.728C869.731,326.238 873.896,336.659 878.358,346.896C881.655,354.46 881.626,354.151 884.726,361.643C885.098,362.542 887.072,369.707 887.072,368.681M842.717,340.141C843.549,340.515 840.56,340.004 840.152,339.188C839.848,338.58 841.504,339.018 842.163,338.853C844.3,338.319 846.43,338.254 848.531,337.512C853.697,335.689 858.975,333.914 864.282,332.485C868.084,331.462 871.443,331.145 875.342,331.145C876.074,331.145 884.21,331.145 881.71,331.145M907.515,307.413C907.546,305.67 903.835,307.497 902.396,308.481C899.668,310.348 897.493,312.362 896.121,315.393C892.236,323.975 889.437,335.559 890.558,345.084C891.555,353.564 908.963,363.184 911.873,351.588M917.49,318.577C918.092,317.317 917.496,315.783 917.57,314.388C917.636,313.14 918.24,309.452 918.24,310.701C918.24,321.416 917.655,332.107 917.905,342.875C918.002,347.059 917.895,350.049 917.57,354.27C917.392,356.587 917.235,356.399 917.235,358.626C917.235,359.632 917.235,362.648 917.235,361.643C917.235,358.37 917.244,355.186 917.57,351.924M921.709,309.371C920.962,309.305 920.085,307.572 920.921,307.015C924.694,304.5 932.312,310.512 933.992,313.382C937.776,319.85 938.176,328.08 940.024,335.167C941.93,342.472 945.343,349.446 947.733,356.616M920.586,338.183C920.586,337.055 922.133,335.766 922.932,335.167C928.245,331.182 935.262,329.604 941.7,328.799M958.146,304.302C956.72,306.203 957.787,318.291 957.787,319.75C957.787,332.659 961.138,345.72 961.138,358.291M951.537,313.236C951.217,313.634 951.126,312.126 951.419,311.707C952.216,310.566 955.897,309.463 956.781,309.361C960.561,308.921 964.376,308.885 968.176,308.69C975.903,308.294 983.045,315.317 986.609,321.426C997.211,339.601 986.985,365.256 963.149,359.297M1001.6,309.277C1002.09,309.713 1002.02,307.35 1002.02,307.35L1002.02,309.026C1002.02,311.577 1001.87,314.19 1002.02,316.734C1002.45,323.579 1004.06,330.292 1004.37,337.177C1004.46,339.14 1004.71,357.533 1004.71,352.594M993.744,318.713C993.386,318.829 996.13,317.202 996.663,317.069C1000,316.233 1003.37,315.819 1006.72,315.058C1014.15,313.37 1022.29,313.107 1029.51,310.701M999.206,333.428C1000.23,333.896 1000.29,331.182 1001.36,330.81C1006.2,329.115 1013.32,328.82 1018.45,327.793M1000.23,352.238C1004.88,353.026 1026.77,346.174 1029.17,348.572M1046.96,304.606C1046.46,305.863 1048.36,321.275 1048.61,324.107C1049.37,332.855 1050.62,345.413 1050.62,353.934M1043.63,312.796C1040.2,307.199 1063.63,325.987 1067.04,327.123M1076.26,304.386C1076.05,304.319 1077.35,303.129 1076.76,304.669C1075.22,308.681 1073.05,312.43 1071.4,316.399C1068.91,322.369 1067.08,326.04 1064.68,332.046M1080.25,302.836C1078.28,305.061 1079.44,314.24 1079.44,317.069C1079.44,330.479 1080.11,343.902 1080.11,357.286M1095.08,306.837C1093.39,305.61 1097.3,310.374 1098.55,312.042C1101.66,316.192 1110.28,321.114 1110.28,326.788M1119.3,308.837C1119.45,307.932 1118.09,310.231 1117.65,311.036C1116.74,312.704 1115.83,314.373 1114.97,316.063C1113.38,319.177 1111.78,322.288 1110.28,325.447C1105.63,335.227 1103.34,346.361 1098.55,355.945" style="fill:none;stroke-width:6px;"/>
            </g>
        </g>
    </svg>
