<svg class="logo daktadeo 3d" width="100%" height="100%" viewBox="0 0 1122 186" version="1.1" xmlns="http://www.w3.org/2000/svg" xmlns:xlink="http://www.w3.org/1999/xlink" xml:space="preserve" xmlns:serif="http://www.serif.com/" style="fill-rule:evenodd;clip-rule:evenodd;stroke-linecap:round;stroke-linejoin:round;stroke-miterlimit:1.5;">
        <g id="Logo-DaktaDeo" transform="matrix(4.2541,0,0,4.2541,-0.807854,-2.00794)">
        <g class="dakta" transform="matrix(1,0,0,1,0.1899,0.472)">
                <path d="M7.878,23.924L11.254,23.924C17.131,23.924 18.798,19.84 18.798,15.463C18.798,13.713 18.423,11.503 17.297,9.753C16.38,8.377 14.797,6.919 11.295,6.919L7.878,6.919L7.878,23.924ZM0,0L10.212,0C13.671,0 19.84,0 23.841,5.752C25.967,8.669 26.675,11.962 26.675,15.338C26.675,23.757 22.507,30.842 10.795,30.842L0,30.842L0,0Z"/>
          <path d="M34.641,20.387C34.641,22.326 36.086,25.673 39.888,25.673C42.131,25.673 43.499,24.608 44.298,23.315C44.83,22.479 45.096,21.567 45.172,20.616C45.248,19.665 45.058,18.714 44.64,17.84C43.955,16.396 42.511,14.912 39.85,14.912C36.238,14.912 34.641,17.954 34.641,20.35L34.641,20.387ZM51.484,30.843L45.172,30.843L45.172,28.561C44.032,30.614 41.409,31.565 38.937,31.565C32.245,31.565 28.329,26.319 28.329,20.274C28.329,13.354 33.311,9.02 38.937,9.02C42.397,9.02 44.336,10.693 45.172,11.986L45.172,9.741L51.484,9.741L51.484,30.843Z"/>
          <path d="M53.754,2.708L60.066,2.708L60.066,17.384L65.996,9.741L73.486,9.741L65.54,19.019L73.258,30.842L66.11,30.842L60.066,20.691L60.066,30.842L53.754,30.842L53.754,2.708Z"/>
          <path d="M78.348,14.532L75.231,14.532L75.231,9.741L78.348,9.741L78.348,2.708L84.66,2.708L84.66,9.741L87.702,9.741L87.702,14.532L84.66,14.532L84.66,30.842L78.348,30.842L78.348,14.532Z"/>
          <path d="M94.637,20.387C94.637,22.326 96.081,25.673 99.883,25.673C102.127,25.673 103.494,24.608 104.293,23.315C104.826,22.479 105.092,21.567 105.168,20.616C105.244,19.665 105.054,18.714 104.637,17.84C103.951,16.396 102.506,14.912 99.845,14.912C96.234,14.912 94.637,17.954 94.637,20.35L94.637,20.387ZM111.479,30.843L105.168,30.843L105.168,28.561C104.027,30.614 101.404,31.565 98.933,31.565C92.241,31.565 88.325,26.319 88.325,20.274C88.325,13.354 93.306,9.02 98.933,9.02C102.392,9.02 104.332,10.693 105.168,11.986L105.168,9.741L111.479,9.741L111.479,30.843Z"/>
            </g>
          <g class="deo" transform="matrix(1,0,0,1,114.204,10.117)">
                <path d="M7.877,23.924L11.254,23.924C17.131,23.924 18.797,19.84 18.797,15.463C18.797,13.713 18.422,11.504 17.297,9.754C16.379,8.378 14.797,6.919 11.295,6.919L7.877,6.919L7.877,23.924ZM0,0L10.211,0C13.67,0 19.84,0 23.84,5.752C25.965,8.67 26.674,11.962 26.674,15.338C26.674,23.758 22.506,30.842 10.795,30.842L0,30.842L0,0Z"/>
            <path d="M43.992,17.688C43.842,16.7 42.549,14.343 39.279,14.343C36.01,14.343 34.717,16.7 34.564,17.688L43.992,17.688ZM34.488,22.479C34.754,24.721 36.883,26.204 39.355,26.204C41.369,26.204 42.433,25.331 43.195,24.227L49.658,24.227C48.631,26.584 47.148,28.409 45.361,29.626C43.613,30.881 41.521,31.528 39.355,31.528C33.31,31.528 28.178,26.624 28.178,20.35C28.178,14.456 32.814,9.02 39.24,9.02C42.472,9.02 45.248,10.274 47.224,12.365C49.887,15.217 50.683,18.6 50.189,22.479L34.488,22.479Z" />
            <path d="M58.471,20.311C58.471,23.354 60.791,25.596 63.528,25.596C66.266,25.596 68.584,23.354 68.584,20.274C68.584,17.194 66.266,14.95 63.528,14.95C60.791,14.95 58.471,17.194 58.471,20.274L58.471,20.311ZM52.16,20.235C52.16,15.102 55.848,9.058 63.528,9.058C71.207,9.058 74.895,15.102 74.895,20.274C74.895,25.444 71.207,31.489 63.528,31.489C55.848,31.489 52.16,25.444 52.16,20.274L52.16,20.235Z" />
            </g>
          <rect class="dot" x="190.87" y="34.496" width="6.578" height="6.463"/>
          <g class="suffix" serif:id="3d" transform="matrix(0.235067,0,0,0.235067,-0.0756622,-46.9729)">
                <path d="M859.069,294.428C858.197,293.722 862.527,289.44 868.519,287.643C875.88,285.434 887.925,282.814 893.175,290.164C897.791,296.628 887.089,304.554 882.248,306.975C880.262,307.968 878.158,308.706 876.084,309.497C875.744,309.626 872.755,309.974 873.002,309.777C875.535,307.75 879.524,308.254 882.528,308.096C899.236,307.216 912.443,316.483 910.266,334.993C908.137,353.082 886.455,365.252 869.64,365.252C864.026,365.252 858.937,364.636 856.751,358.808C855.502,355.477 857.872,348.996 857.872,349.562M922.665,284.569C922.504,284.55 923.039,284.445 923.154,284.561C923.423,284.83 922.874,290.643 922.874,291.005C922.874,295.072 923.888,299.582 923.714,303.613C923.075,318.442 921.775,331.102 922.313,338.915C922.733,345.018 920.632,351.005 920.632,357.127M910.425,285.349C911.077,285.632 908.304,285.121 908.304,285.121C908.304,285.121 912.587,284.425 914.748,284.28C918.023,284.062 921.564,283.852 924.835,284C934.533,284.441 944.823,287.114 953.973,290.164C968.975,295.165 991.167,315.359 983.752,333.898C979.357,344.885 969.362,351.518 959.311,356.903C951.539,361.067 941.778,365.44 932.96,366.093C929.026,366.384 924.857,366.933 921.024,365.736C919.289,365.193 909.568,362.408 909.568,362.408" style="fill:none;stroke-width:6px;"/>
            </g>
        </g>
    </svg>
