<svg  class="logo multipass"  version="1.1" xmlns="http://www.w3.org/2000/svg" xmlns:xlink="http://www.w3.org/1999/xlink" x="0px" y="0px"
     viewBox="0 0 114 114" enable-background="new 0 0 114 114" xml:space="preserve">
        <g>
            <path class="background" d="M104.87,85.08H9.13C4.09,85.08,0,80.99,0,75.95V37.63c0-5.04,4.09-9.13,9.13-9.13h95.74
            c5.04,0,9.13,4.09,9.13,9.13v38.32C114,80.99,109.91,85.08,104.87,85.08z" />
          <g class="multipass">
                <path
                  d="M14.53,38.89c0.41-2.28,3.06-4.87,6.66-4.87c3.4,0,6.05,2.28,6.8,4.56L36,63.64h0.14l8.02-25.07
                c0.75-2.28,3.4-4.56,6.8-4.56c3.6,0,6.25,2.6,6.66,4.87l6.32,35.32C64,74.59,64,74.97,64,75.29c0,2.79-2.18,4.56-4.89,4.56
                c-3.47,0-4.82-1.46-5.3-4.43L49.8,49.65h-0.14l-8.15,26.52c-0.48,1.52-1.77,3.67-5.44,3.67c-3.67,0-4.96-2.15-5.44-3.67
                l-8.15-26.52h-0.14l-4.01,25.76c-0.48,2.98-1.83,4.43-5.3,4.43c-2.72,0-4.89-1.77-4.89-4.56c0-0.32,0-0.7,0.07-1.08L14.53,38.89z" />
            <path d="M68.69,39.33c0-2.97,1.9-4.94,5.3-4.94h12.03c9.99,0,17.4,6.08,17.4,15.13c0,9.24-7.68,15-16.99,15h-7.54
                v10.38c0,3.16-2.18,4.94-5.1,4.94c-2.92,0-5.1-1.77-5.1-4.94V39.33z M78.89,56.17h6.93c4.28,0,7-2.91,7-6.71
                c0-3.8-2.72-6.71-7-6.71h-6.93V56.17z" />
            </g>
        </g>
    </svg>
