<?xml version="1.0" standalone="no"?>
<!DOCTYPE svg PUBLIC "-//W3C//DTD SVG 20010904//EN"
 "http://www.w3.org/TR/2001/REC-SVG-20010904/DTD/svg10.dtd">
<svg version="1.0" xmlns="http://www.w3.org/2000/svg"
 width="114.000000pt" height="114.000000pt" viewBox="0 0 114.000000 114.000000"
 preserveAspectRatio="xMidYMid meet">
<metadata>
Created by potrace 1.11, written by Peter Selinger 2001-2013
</metadata>
<g transform="translate(0.000000,114.000000) scale(0.100000,-0.100000)"
fill="#000000" stroke="none">
<path d="M66 863 c-4 -4 -16 -9 -27 -9 -10 -1 -23 -2 -29 -3 -15 -2 -14 -538
1 -547 12 -7 185 -7 244 0 109 12 212 107 229 212 5 30 9 115 6 124 -1 3 -3
15 -6 28 -17 92 -89 155 -215 189 -39 10 -194 15 -203 6z m184 -115 c48 -12
98 -80 101 -138 8 -126 -62 -207 -178 -208 -43 -1 -43 -1 -44 36 -1 44 -1 279
0 305 1 17 8 18 54 14 28 -2 59 -6 67 -9z"/>
<path d="M586 863 c-4 -4 -19 -8 -34 -9 -15 -1 -30 -2 -33 -3 -3 0 -6 -122 -6
-271 0 -260 0 -270 20 -276 24 -7 210 -7 252 1 53 10 135 57 161 91 88 115 84
291 -8 383 -38 39 -140 87 -158 76 -5 -3 -11 -1 -15 5 -7 11 -168 14 -179 3z
m212 -128 c48 -29 67 -71 67 -150 0 -56 -5 -78 -23 -107 -27 -44 -89 -75 -149
-77 l-43 -1 0 181 0 182 59 -6 c33 -3 73 -13 89 -22z"/>
<path d="M1011 433 c-12 -10 -24 -34 -27 -53 -4 -29 0 -40 22 -64 22 -24 32
-27 61 -23 19 4 43 15 53 26 21 26 19 85 -6 112 -22 24 -75 25 -103 2z"/>
</g>
</svg>
