<svg class="logo multipass" version="1.1" xmlns="http://www.w3.org/2000/svg" xmlns:xlink="http://www.w3.org/1999/xlink" x="0px" y="0px"
     viewBox="0 0 702.79 109.77" enable-background="new 0 0 702.79 109.77" xml:space="preserve">
		<g>
			<path class="background" d="M82.36,36.99H16.27c-3.08,0-5.59,2.51-5.59,5.59v24.81c0,3.08,2.52,5.59,5.59,5.59h59.65L82.36,36.99z"/>
      <g>
				<path class="multipass" d="M19.63,43.51c0.26-1.45,1.94-3.1,4.23-3.1c2.16,0,3.84,1.45,4.32,2.9l5.09,15.92h0.09l5.09-15.92
					c0.47-1.45,2.16-2.9,4.32-2.9c2.29,0,3.97,1.65,4.23,3.1l4.01,22.44c0.04,0.24,0.04,0.48,0.04,0.68c0,1.77-1.38,2.89-3.11,2.89
					c-2.2,0-3.06-0.92-3.37-2.81l-2.55-16.36h-0.09l-5.18,16.85c-0.3,0.96-1.12,2.33-3.45,2.33c-2.33,0-3.15-1.37-3.45-2.33
					l-5.18-16.85H24.6l-2.55,16.36c-0.3,1.89-1.17,2.81-3.37,2.81c-1.73,0-3.11-1.13-3.11-2.89c0-0.2,0-0.44,0.04-0.68L19.63,43.51z
					"/>
        <path class="multipass" d="M54.04,43.79c0-1.89,1.21-3.14,3.37-3.14h7.64c6.35,0,11.05,3.86,11.05,9.61
					c0,5.87-4.88,9.53-10.79,9.53h-4.79v6.59c0,2.01-1.38,3.14-3.24,3.14c-1.86,0-3.24-1.13-3.24-3.14V43.79z M60.51,54.48h4.4
					c2.72,0,4.45-1.85,4.45-4.26c0-2.41-1.73-4.26-4.45-4.26h-4.4V54.48z"/>
			</g>
        </g>
  <g class="suffix">
			<path class="mp-letter" d="M93.22,22.24c0.78-4.35,5.83-9.29,12.69-9.29c6.48,0,11.53,4.35,12.96,8.69l15.28,47.79h0.26l15.29-47.79
				c1.43-4.34,6.48-8.69,12.96-8.69c6.87,0,11.92,4.95,12.7,9.29l12.05,67.35c0.13,0.72,0.13,1.45,0.13,2.05
				c0,5.31-4.14,8.69-9.33,8.69c-6.6,0-9.2-2.78-10.1-8.45l-7.65-49.12h-0.26l-15.54,50.57c-0.91,2.89-3.37,7-10.37,7
				c-7,0-9.45-4.11-10.36-7l-15.55-50.57h-0.26l-7.64,49.12c-0.91,5.67-3.5,8.45-10.11,8.45c-5.18,0-9.33-3.38-9.33-8.69
				c0-0.6,0-1.33,0.13-2.05L93.22,22.24z"/>
    <path class="mp-letter" d="M191.91,22.36c0-6.04,4.15-9.41,9.71-9.41c5.57,0,9.71,3.38,9.71,9.41v42.12
				c0,11.11,7.65,19.92,19.96,19.92c11.79,0,19.82-9.29,19.82-19.92V22.36c0-6.04,4.14-9.41,9.71-9.41c5.58,0,9.72,3.38,9.72,9.41
				v43.09c0,20.28-17.88,35.61-39.25,35.61c-21.64,0-39.39-15.09-39.39-35.61V22.36z"/>
    <path class="mp-letter" d="M279.55,22.36c0-6.04,4.15-9.41,9.72-9.41c5.57,0,9.72,3.38,9.72,9.41v60.59h23.06
				c6.61,0,9.46,4.59,9.33,8.69c-0.26,3.98-3.63,7.97-9.33,7.97h-32.39c-6.35,0-10.1-3.86-10.1-9.9V22.36z"/>
    <path class="mp-letter" d="M339.72,30.32H325.6c-6.22,0-8.81-4.23-8.81-8.33c0-4.22,3.24-8.33,8.81-8.33h47.68
				c5.57,0,8.81,4.1,8.81,8.33c0,4.1-2.59,8.33-8.81,8.33h-14.12v60.59c0,6.03-4.14,9.41-9.71,9.41c-5.57,0-9.72-3.38-9.72-9.41
				V30.32z"/>
    <path class="mp-letter" d="M389.22,22.36c0-6.04,4.15-9.41,9.71-9.41c5.57,0,9.72,3.38,9.72,9.41v68.55c0,6.03-4.15,9.41-9.72,9.41
				c-5.57,0-9.71-3.38-9.71-9.41V22.36z"/>
    <path class="mp-letter" d="M419.37,23.08c0-5.67,3.63-9.41,10.1-9.41h22.94c19.04,0,33.16,11.59,33.16,28.84
				c0,17.62-14.64,28.6-32.39,28.6H438.8v19.8c0,6.03-4.14,9.41-9.72,9.41c-5.57,0-9.71-3.38-9.71-9.41V23.08z M438.8,55.19h13.21
				c8.17,0,13.35-5.55,13.35-12.79c0-7.24-5.18-12.79-13.35-12.79H438.8V55.19z"/>
    <path class="mp-letter" d="M502.25,22.24c2.2-5.55,7.25-10.02,13.86-10.02c6.87,0,11.66,4.22,13.87,10.02l25.39,65.66
				c0.78,1.93,1.03,3.62,1.03,4.47c0,4.71-4.15,7.97-8.94,7.97c-5.44,0-8.16-2.66-9.46-6.28l-3.89-11.34H498.1l-3.89,11.23
				c-1.3,3.74-4.02,6.4-9.33,6.4c-5.18,0-9.59-3.62-9.59-8.45c0-1.93,0.65-3.38,0.91-3.98L502.25,22.24z M503.67,66.05h24.62
				l-12.05-35h-0.26L503.67,66.05z"/>
    <path class="mp-letter" d="M618,24.29c0,4.71-3.37,8.93-8.68,8.93s-9.46-3.62-17.23-3.62c-5.57,0-10.63,2.78-10.63,7.84
				c0,12.43,43.27,4.47,43.27,35.6c0,17.26-15.28,28-33.16,28c-9.98,0-31.48-2.17-31.48-13.52c0-4.71,3.37-8.57,8.68-8.57
				c6.09,0,13.34,4.71,21.77,4.71c8.55,0,13.22-4.47,13.22-10.38c0-14.24-43.28-5.67-43.28-33.67c0-16.9,14.9-27.4,32.13-27.4
				C599.86,12.22,618,14.75,618,24.29z"/>
    <path class="mp-letter" d="M687.58,24.29c0,4.71-3.37,8.93-8.68,8.93c-5.31,0-9.46-3.62-17.23-3.62c-5.57,0-10.63,2.78-10.63,7.84
				c0,12.43,43.27,4.47,43.27,35.6c0,17.26-15.28,28-33.17,28c-9.97,0-31.48-2.17-31.48-13.52c0-4.71,3.36-8.57,8.68-8.57
				c6.09,0,13.35,4.71,21.77,4.71c8.55,0,13.22-4.47,13.22-10.38c0-14.24-43.28-5.67-43.28-33.67c0-16.9,14.9-27.4,32.13-27.4
				C669.44,12.22,687.58,14.75,687.58,24.29z"/>
		</g>
    </svg>
