<svg class="logo multipass" version="1.1" xmlns="http://www.w3.org/2000/svg" xmlns:xlink="http://www.w3.org/1999/xlink" x="0px" y="0px"
     viewBox="0 0 114 114" enable-background="new 0 0 114 114" xml:space="preserve">
        <g>
            <path class="background"
                  d="M113.64,28.78H8.87C3.99,28.78,0,32.77,0,37.64v39.33c0,4.88,3.99,8.86,8.87,8.86h94.56L113.64,28.78z" />
          <g class="multipass">
                <path d="M14.2,39.1c0.41-2.29,3.08-4.91,6.71-4.91c3.42,0,6.09,2.3,6.84,4.59l8.07,25.24h0.14l8.07-25.24
               c0.75-2.29,3.42-4.59,6.84-4.59c3.63,0,6.3,2.61,6.71,4.91l6.36,35.57c0.07,0.38,0.07,0.77,0.07,1.08c0,2.8-2.19,4.59-4.93,4.59
               c-3.49,0-4.86-1.47-5.34-4.46l-4.04-25.94h-0.14l-8.21,26.71c-0.48,1.53-1.78,3.7-5.48,3.7c-3.7,0-4.99-2.17-5.47-3.7L22.2,49.94
               h-0.14l-4.04,25.94c-0.48,3-1.85,4.46-5.34,4.46c-2.74,0-4.93-1.78-4.93-4.59c0-0.32,0-0.7,0.07-1.08L14.2,39.1z" />
            <path d="M68.73,39.55c0-3,1.92-4.97,5.34-4.97h12.11c10.06,0,17.52,6.12,17.52,15.23
               c0,9.31-7.73,15.11-17.11,15.11H79v10.45c0,3.19-2.19,4.97-5.13,4.97c-2.94,0-5.13-1.78-5.13-4.97V39.55z M79,56.51h6.98
               c4.31,0,7.05-2.93,7.05-6.76s-2.74-6.76-7.05-6.76H79V56.51z" />
            </g>
        </g>
    </svg>
